# xmcd CD database file
#
# Track frame offsets:
#	183
#	17393
#	33490
#	52463
#	74975
#	98015
#	114093
#	133753
#	153015
#	173220
#	193508
#	210363
#	238285
#	257560
#	272770
#	293130
#
# Disc length: 4108 seconds
#
# Revision: 0
# Processed by: cddbd v1.5.1PL0 Copyright (c) Steve Scherf et al.
# Submitted via: CDex 1.51
#
DISCID=e6100a10
DTITLE=Various Artist - Bloody Bluesy
DYEAR=1998
DGENRE=Blues
TTITLE0=Albert Collins and Robert Cray_She's into something
TTITLE1=Kenny Neal_Blues Stew
TTITLE2=Lil'Ed and The Blues Imperials-4.13_Please Help
TTITLE3=Katie Webster&Lonnie Brooks_Those lonely, lonely nights
TTITLE4=Son Seals_Frigidaire Woman
TTITLE5=The Paladins_Follow your heart
TTITLE6=Lonnie Mack_Natural Disaster
TTITLE7=Charlie Musselwhite and John Lee Hooker_Cheatin' on me
TTITLE8=A.C. Reel and Bonnie Raitt_She's Fine
TTITLE9=Junior Well, Billy Brach and James Cotton_Broke and Hungry
TTITLE10=Little Charlie and The Night Cats_Dump That Chump (Live)
TTITLE11=Lonnie Brooks and Koko Taylor_If the price is right
TTITLE12=Tinsley Ellis_Sign of the blues
TTITLE13=Roy Buchanan and Delbert McClinton_You can't judge a book by the cover
TTITLE14=Alber Collins, Johnny Copeland and Robert Cray_Bring your fine self home
TTITLE15=Clarence Gatemouth Brown_Dope
EXTD=YEAR: 1998
EXTT0=
EXTT1=
EXTT2=
EXTT3=
EXTT4=
EXTT5=
EXTT6=
EXTT7=
EXTT8=
EXTT9=
EXTT10=
EXTT11=
EXTT12=
EXTT13=
EXTT14=
EXTT15=
PLAYORDER=
